<svg width="188px" height="166px" viewBox="0 0 188 166" fill="none" xmlns="http://www.w3.org/2000/svg" transform="rotate(0) scale(1, 1)">
<path d="M1 164.68L145.68 20" stroke="#1872ff" stroke-width="2" stroke-miterlimit="10" stroke-linecap="round"/>
<path d="M99 106.21L127.21 78" stroke="#1872ff" stroke-width="2" stroke-miterlimit="10" stroke-linecap="round"/>
<path d="M161.606 1.60586C163.728 -0.516652 167.191 -0.516652 169.314 1.60586L185.735 18.0274C187.858 20.1499 187.858 23.613 185.735 25.7355C183.613 27.858 180.15 27.858 178.027 25.7355L161.606 9.31394C159.465 7.19143 159.465 3.72838 161.606 1.60586Z" fill="#18beff56"/>
<path d="M185.735 1.60585C187.858 3.72837 187.858 7.19142 185.735 9.31393L169.314 25.7355C167.191 27.858 163.728 27.858 161.606 25.7355C159.483 23.613 159.483 20.1499 161.606 18.0274L178.027 1.60585C180.168 -0.535284 183.613 -0.535284 185.735 1.60585Z" fill="#18beff56"/>
</svg>